<svg xmlns="http://www.w3.org/2000/svg" viewBox="0 0 1440 320"><path fill="#002a49" fill-opacity="1" d="M0,0L30,26.7C60,53,120,107,180,160C240,213,300,267,360,272C420,277,480,235,540,192C600,149,660,107,720,122.7C780,139,840,213,900,208C960,203,1020,117,1080,96C1140,75,1200,117,1260,128C1320,139,1380,117,1410,106.7L1440,96L1440,320L1410,320C1380,320,1320,320,1260,320C1200,320,1140,320,1080,320C1020,320,960,320,900,320C840,320,780,320,720,320C660,320,600,320,540,320C480,320,420,320,360,320C300,320,240,320,180,320C120,320,60,320,30,320L0,320Z"></path></svg>