<svg xmlns="http://www.w3.org/2000/svg" viewBox="0 0 1440 320"><path fill="#002a49" fill-opacity="1" d="M0,160L30,154.7C60,149,120,139,180,165.3C240,192,300,256,360,261.3C420,267,480,213,540,202.7C600,192,660,224,720,208C780,192,840,128,900,117.3C960,107,1020,149,1080,154.7C1140,160,1200,128,1260,101.3C1320,75,1380,53,1410,42.7L1440,32L1440,320L1410,320C1380,320,1320,320,1260,320C1200,320,1140,320,1080,320C1020,320,960,320,900,320C840,320,780,320,720,320C660,320,600,320,540,320C480,320,420,320,360,320C300,320,240,320,180,320C120,320,60,320,30,320L0,320Z"></path></svg>